<?xml version="1.0" encoding="utf-8"?>
<!-- Generator: Adobe Illustrator 24.2.1, SVG Export Plug-In . SVG Version: 6.00 Build 0)  -->
<svg version="1.1" id="Layer_1" xmlns="http://www.w3.org/2000/svg" xmlns:xlink="http://www.w3.org/1999/xlink" x="0px" y="0px"
	 viewBox="0 0 192.2 74.5" style="enable-background:new 0 0 192.2 74.5;" xml:space="preserve">
<g>
	<path d="M126.1,38.9l-16.4-19.3l14.1-16.3c1.5-1.7,3.9-2.8,6.5-2.8h0.3V0h-12.7v0.5h0.6c1.6,0,2.5,1.5,1.4,2.8l-14.1,17.7
		l14.4,17.5c2.8,3.2,7.4,3.4,9,3.4l2.5,0v-0.6C129.4,41.3,127.8,40.6,126.1,38.9z"/>
	<path d="M105,41.4c-2.1,0-3.8-1.7-3.8-3.8h0V4.4c0-2.1,1.7-3.8,3.8-3.8l0.8,0l0-0.6H92.7l0,0.6l0.8,0c2.1,0,3.8,1.6,3.8,3.7v16
		H72.7v-16c0.1-2.1,1.8-3.7,3.8-3.7l0.8,0l0-0.6H64.2l0,0.6l0.8,0c2.1,0,3.8,1.7,3.8,3.7v33.3c0,2.1-1.7,3.8-3.8,3.8l-0.8,0l0,0.6
		h13.1l0-0.6l-0.8,0c-2.1,0-3.8-1.7-3.8-3.8V22.1h24.6v15.5c-0.1,2.1-1.8,3.7-3.8,3.7l-0.8,0l0,0.6h13.1l0-0.6L105,41.4z"/>
</g>
<g>
	<path d="M5.5,63.2H1.3v3.5h4V68h-4v5.9H0v-12h5.5V63.2z"/>
	<path d="M12.4,69.3c0,1,0,2.1,1,2.9c0.5,0.4,1.3,0.7,2,0.7s1.5-0.3,2-0.7c1-0.8,1-1.9,1-2.9v-7.4h1.3v7.7c0,1-0.1,2-0.8,2.9
		c-0.7,1-2,1.6-3.5,1.6s-2.8-0.6-3.5-1.6c-0.6-0.9-0.8-1.9-0.8-2.9v-7.7h1.3V69.3z"/>
	<path d="M26.3,73.9V61.4l9.4,9.8v-9.3H37v12.5l-9.4-9.8v9.3H26.3z"/>
	<path d="M50,63.2h-4.9v3.6h4.8V68h-4.8v4.7H50v1.3h-6.2v-12H50V63.2z"/>
	<path d="M58,61.9c0.8,0,2,0.1,2.9,0.7c0.7,0.5,1.3,1.4,1.3,2.7c0,1.8-1.2,3.2-3,3.3l3.8,5.4h-1.6l-3.7-5.3h-0.3v5.3h-1.3v-12H58z
		 M57.4,67.5h0.8c1.7,0,2.6-0.8,2.6-2.2c0-0.7-0.2-1.3-1-1.8c-0.5-0.3-1.2-0.3-1.7-0.3h-0.8V67.5z"/>
	<path d="M75.8,70.5h-5.1l-1.4,3.4h-1.5l5.5-12.6l5.4,12.6h-1.5L75.8,70.5z M75.3,69.3l-2-4.8l-2.1,4.8H75.3z"/>
	<path d="M85.4,61.9v10.7h3.3v1.3H84v-12H85.4z"/>
	<path d="M107.3,63.2h-4.1v3.5h4V68h-4v5.9h-1.3v-12h5.5V63.2z"/>
	<path d="M114.4,61.9v10.7h3.3v1.3H113v-12H114.4z"/>
	<path d="M121.8,67.9c0-3.6,2.8-6.2,6.2-6.2s6.2,2.6,6.2,6.2c0,3.6-2.8,6.2-6.2,6.2C124.6,74.1,121.8,71.5,121.8,67.9z M123.2,67.9
		c0,2.8,2.2,5,4.9,5s4.9-2.2,4.9-5s-2.2-5-4.9-5S123.2,65.2,123.2,67.9z"/>
	<path d="M140,61.9l3.2,9l3.8-9.6l3.6,9.6l3.5-9h1.5l-5,12.6l-3.5-9.6l-3.8,9.6l-4.6-12.6H140z"/>
	<path d="M167,63.2h-4.9v3.6h4.8V68h-4.8v4.7h4.9v1.3h-6.2v-12h6.2V63.2z"/>
	<path d="M175,61.9c0.8,0,2,0.1,2.9,0.7c0.7,0.5,1.3,1.4,1.3,2.7c0,1.8-1.2,3.2-3,3.3l3.8,5.4h-1.6l-3.7-5.3h-0.3v5.3h-1.3v-12H175z
		 M174.4,67.5h0.8c1.7,0,2.6-0.8,2.6-2.2c0-0.7-0.2-1.3-1-1.8c-0.5-0.3-1.2-0.3-1.7-0.3h-0.8V67.5z"/>
	<path d="M190.7,64.3c-0.2-0.3-0.4-0.7-0.7-0.9c-0.2-0.2-0.7-0.4-1.4-0.4c-1.2,0-2,0.7-2,1.9c0,0.5,0.1,0.7,0.5,1
		c0.4,0.4,0.8,0.6,1.3,0.8l1.2,0.5c0.7,0.3,1.4,0.6,1.9,1.1c0.6,0.6,0.9,1.3,0.9,2.2c0,2.2-1.6,3.7-3.8,3.7c-0.8,0-1.8-0.2-2.6-1
		c-0.6-0.6-1-1.4-1.1-2.1l1.3-0.4c0.1,0.6,0.4,1.2,0.7,1.5c0.5,0.5,1.1,0.7,1.7,0.7c1.6,0,2.4-1.2,2.4-2.4c0-0.5-0.2-1-0.6-1.4
		c-0.3-0.3-0.8-0.5-1.4-0.8l-1.1-0.5c-0.5-0.2-1.1-0.5-1.6-1c-0.5-0.5-0.8-1.1-0.8-2c0-1.9,1.4-3.1,3.4-3.1c0.7,0,1.3,0.1,1.9,0.5
		c0.5,0.3,0.9,0.8,1.2,1.3L190.7,64.3z"/>
</g>
</svg>
